<?xml version="1.0" encoding="utf-8"?>
<!-- Generator: Adobe Illustrator 24.3.0, SVG Export Plug-In . SVG Version: 6.00 Build 0)  -->
<svg version="1.0" id="Layer_1" xmlns="http://www.w3.org/2000/svg" xmlns:xlink="http://www.w3.org/1999/xlink" x="0px" y="0px"
	 viewBox="0 0 50 50" style="enable-background:new 0 0 50 50;" xml:space="preserve">
<style type="text/css">
	.st0{fill:#FFBC15;}
</style>
<g>
	<path class="st0" d="M17.99,16.57L22.7,6.53c0.51-1.1,2.06-1.13,2.62-0.05l5.1,9.84c0.22,0.43,0.64,0.72,1.11,0.78l11,1.38
		c1.2,0.15,1.71,1.61,0.86,2.47l-7.79,7.89c-0.34,0.34-0.49,0.83-0.39,1.3l2.09,10.89c0.23,1.19-1.01,2.12-2.09,1.58l-9.91-4.97
		c-0.43-0.22-0.94-0.21-1.36,0.03l-9.71,5.35c-1.06,0.58-2.33-0.3-2.15-1.5l1.66-10.96c0.07-0.48-0.09-0.96-0.44-1.28L5.21,21.7
		c-0.88-0.83-0.43-2.31,0.76-2.51l10.94-1.81C17.38,17.31,17.78,17,17.99,16.57z"/>
</g>
</svg>
